PathFileType	4	(X/Y/Z)	./resultDataOpenSim/trcMotMarkerGrf/sub06/qtm-14-03.trc
DataRate	CameraRate	NumFrames	NumMarkers	Units	OrigDataRate	OrigDataStartFrame	OrigNumFrames
250.000000	250.000000	8	24	m	250.000000	475	542
Frame#	Time	L.Toe.Tip			R.Toe.Tip			L.Ankle.Lat			R.Ankle.Lat			L.Ankle.Med			R.Ankle.Med			L.Heel			R.Heel			L.Knee.Lat			R.Knee.Lat			L.Knee.Med			R.Knee.Med			L.Thigh.Upper			R.Thigh.Upper			L.ASIS			R.ASIS			V.Sacral			L.Acromium			R.Acromium			C7			L.Elbow			R.Elbow			L.Wrist.Lat			R.Wrist.Lat
		X1	Y1	Z1	X2	Y2	Z2	X3	Y3	Z3	X4	Y4	Z4	X5	Y5	Z5	X6	Y6	Z6	X7	Y7	Z7	X8	Y8	Z8	X9	Y9	Z9	X10	Y10	Z10	X11	Y11	Z11	X12	Y12	Z12	X13	Y13	Z13	X14	Y14	Z14	X15	Y15	Z15	X16	Y16	Z16	X17	Y17	Z17	X18	Y18	Z18	X19	Y19	Z19	X20	Y20	Z20	X21	Y21	Z21	X22	Y22	Z22	X23	Y23	Z23	X24	Y24	Z24

475	1.896	1.7096473	0.034212706	-0.13399375	1.3028021	0.081846329	0.083518668	1.5835697	0.067137386	-0.15502726	1.2663159	0.2146883	0.10629597	1.5804655	0.079464011	-0.067700412	1.3004581	0.21108175	0.02511263	1.5092607	0.038204513	-0.10980057	1.2248769	0.24958192	0.04183871	1.626549	0.44063398	-0.16679908	1.5734508	0.43223686	0.1347077	1.59254	0.43767529	-0.049043415	1.5667307	0.4096748	0.0032645831	1.5037768	0.81726708	-0.2277121	1.4428095	0.78327169	0.11748571	1.5652108	0.86225068	-0.17405654	1.5481741	0.84903387	0.073392004	1.3691619	0.91963346	-0.053589417	1.4928023	1.3206066	-0.25411198	1.4809605	1.3276704	0.11157292	1.4030877	1.363171	-0.076113907	1.4516754	0.99940289	-0.29083376	1.427117	1.0073518	0.17916603	1.5985477	0.80828748	-0.33765046	1.6108964	0.84556457	0.17700588
476	1.9	1.7096354	0.034228213	-0.1339708	1.3181751	0.081510201	0.083859211	1.5835526	0.067211081	-0.15502383	1.2785208	0.21357673	0.10581688	1.5805276	0.079619392	-0.067682253	1.3131146	0.21015304	0.024755585	1.5092448	0.038292453	-0.10979592	1.2365825	0.24721069	0.041232625	1.6275055	0.44063003	-0.16661526	1.5831579	0.43535958	0.1336923	1.5932002	0.43794342	-0.048911365	1.5765969	0.41268772	0.0020684102	1.507494	0.81800039	-0.22814735	1.4463695	0.78577616	0.11732617	1.5694432	0.86357715	-0.17466643	1.552608	0.85123998	0.072925745	1.373589	0.92121024	-0.054203858	1.4974436	1.3226036	-0.25432881	1.4852454	1.3294103	0.11134068	1.4076337	1.3647887	-0.076402969	1.4585812	1.0008433	-0.29173515	1.4302201	1.009442	0.17803451	1.6091577	0.81189881	-0.33685221	1.6109268	0.84475717	0.17822887
477	1.904	1.7096188	0.034242385	-0.13395937	1.3336439	0.081101925	0.084198057	1.5835208	0.067281198	-0.15501735	1.2907927	0.21230126	0.10532296	1.5805299	0.079753697	-0.067659377	1.3258234	0.20906465	0.024367734	1.5092258	0.038368939	-0.10978007	1.2483426	0.24460107	0.040604674	1.6283866	0.44065415	-0.16645172	1.5927944	0.43848772	0.13266287	1.5938461	0.4381823	-0.048782659	1.5864797	0.41575954	0.00083701732	1.5111231	0.81871841	-0.22860077	1.4498985	0.78827628	0.11719091	1.5736469	0.86486666	-0.17530153	1.5570875	0.85341395	0.072413314	1.3780228	0.92277261	-0.054813739	1.5020997	1.3246099	-0.25455876	1.4895491	1.3310911	0.11109088	1.4121576	1.3663478	-0.076675836	1.4654077	1.002314	-0.29235183	1.4331794	1.0115347	0.17695673	1.6200279	0.81555512	-0.33597149	1.6109035	0.84405047	0.17942029
478	1.908	1.7095918	0.034256316	-0.1339575	1.3493514	0.080657942	0.084562518	1.5834668	0.067349675	-0.15500009	1.3031445	0.21084119	0.10482062	1.5804748	0.079861428	-0.067634629	1.3385179	0.20781457	0.023914812	1.5091979	0.038432442	-0.1097474	1.260175	0.24177072	0.039959947	1.6292221	0.44069709	-0.16629467	1.6023278	0.441602	0.13162539	1.5944905	0.43838006	-0.048642519	1.5964425	0.41888847	-0.00041916311	1.5149	0.8194427	-0.22900814	1.454147	0.79062882	0.11713762	1.5778075	0.86612249	-0.1759604	1.5615983	0.8555567	0.071859346	1.3823695	0.92429548	-0.055393919	1.5067612	1.3266089	-0.25478789	1.4938487	1.3326942	0.11081324	1.4166498	1.3678436	-0.076939452	1.4721492	1.0037972	-0.29262572	1.4359541	1.0136186	0.17594499	1.631009	0.81927213	-0.33502148	1.6108382	0.84343658	0.1806043
479	1.912	1.7095567	0.034271887	-0.13396174	1.3653661	0.08020115	0.084964552	1.5833938	0.067422199	-0.1549707	1.3155837	0.20920683	0.10431686	1.5803777	0.079948083	-0.067613592	1.3511308	0.20640062	0.023367388	1.509163	0.038492855	-0.10970117	1.2720911	0.23873323	0.039301197	1.6300074	0.4407475	-0.16614185	1.6117212	0.44469289	0.13057717	1.5951599	0.43853561	-0.048487981	1.6065358	0.42207243	-0.0016655053	1.519001	0.8201939	-0.22931869	1.4597758	0.79274208	0.11723316	1.5819495	0.86735177	-0.17662767	1.5661319	0.85766601	0.071267351	1.3864281	0.9258104	-0.055898645	1.5114015	1.3285771	-0.25499814	1.498131	1.3342315	0.1105187	1.4211107	1.3692884	-0.077200999	1.4788296	1.005286	-0.29273672	1.4384492	1.0156895	0.17499407	1.6417397	0.82307881	-0.33404115	1.6107411	0.84291214	0.18180122
480	1.916	1.7095182	0.034292171	-0.13396837	1.381554	0.079715694	0.085377259	1.583313	0.067502096	-0.15493635	1.3281201	0.20741448	0.10380832	1.5802594	0.080024479	-0.067599222	1.3636995	0.20482891	0.022750125	1.5091288	0.038561972	-0.10965286	1.2840879	0.23549431	0.038636291	1.6307097	0.44079529	-0.16600655	1.6209607	0.44776265	0.12950891	1.5958665	0.43865534	-0.048330593	1.6163839	0.42529663	-0.0028654772	1.5232409	0.82096626	-0.22958488	1.4660707	0.79476861	0.11758432	1.5861729	0.8685649	-0.17727169	1.5706982	0.85973554	0.070642457	1.3899967	0.92737824	-0.056295558	1.516005	1.3305037	-0.25518572	1.5023944	1.3357198	0.11021759	1.4255503	1.3706995	-0.077464897	1.4854774	1.0067786	-0.29299913	1.4405707	1.0177466	0.1740899	1.6519793	0.82698356	-0.33306145	1.6106132	0.8424725	0.18301639
481	1.92	1.7094806	0.034319266	-0.13397545	1.3977745	0.079177864	0.085772991	1.5832366	0.067588391	-0.15490935	1.3407649	0.2054713	0.10328851	1.5801554	0.080103865	-0.067595574	1.3764364	0.20311596	0.022167029	1.5091017	0.038645612	-0.10961391	1.296177	0.23205981	0.037965618	1.631312	0.44083346	-0.16589971	1.630053	0.45081322	0.12841437	1.5965877	0.43875351	-0.048182071	1.6254807	0.42852803	-0.0040103685	1.5272626	0.82173866	-0.22989856	1.4714378	0.79697926	0.11822042	1.5906297	0.86976535	-0.17785615	1.5752939	0.86175863	0.069986789	1.3931505	0.92899082	-0.056608002	1.5205738	1.332388	-0.25536507	1.5066481	1.3371656	0.10990571	1.4299821	1.3720891	-0.077742031	1.4921032	1.0082717	-0.2935574	1.4424646	1.0197724	0.17320422	1.6618268	0.83096392	-0.33207291	1.6104539	0.84210888	0.18424011
482	1.924	1.7094458	0.034351023	-0.13398451	1.4140976	0.078598169	0.086153794	1.5831696	0.067677302	-0.15489999	1.3535263	0.20337916	0.1027579	1.5801091	0.08019985	-0.06760887	1.3895197	0.20127628	0.021696572	1.5090842	0.03874161	-0.1095908	1.3083781	0.22843506	0.037280641	1.6318286	0.44085785	-0.16581994	1.6390065	0.45383627	0.12729595	1.597248	0.43885413	-0.048037662	1.6338515	0.43174692	-0.0051140906	1.5310133	0.82250076	-0.23026042	1.4754388	0.79940772	0.11895347	1.5953559	0.87092991	-0.17837485	1.5798981	0.86373263	0.069298898	1.3962807	0.93054688	-0.056895954	1.5251179	1.3342289	-0.25555181	1.5109083	1.3385651	0.10957376	1.4344122	1.3734535	-0.078043771	1.4987215	1.0097555	-0.29433095	1.4445052	1.0217311	0.17230585	1.671638	0.83498631	-0.33102851	1.610271	0.84180985	0.18546325
